# MagicaVoxel @ Ephtracy

# group
o 

# material
mtllib enemy_boss.mtl
usemtl palette

# normals
vn -1 0 0
vn 1 0 0
vn 0 0 1
vn 0 0 -1
vn 0 -1 0
vn 0 1 0

# texcoords
vt 0.861328 0.5
vt 0.884766 0.5
vt 0.994141 0.5

# verts
v -1.4 -0.8 0.2
v -1.4 -0.8 -0.2
v -1.4 -0.4 0.2
v -1.4 -0.4 -0.2
v -1.2 -0.8 0.4
v -1.2 -0.8 0.2
v -1.2 -0.8 -0.2
v -1.2 -0.8 -0.4
v -1.2 -0.4 0.4
v -1.2 -0.4 0.2
v -1.2 -0.4 -0.2
v -1.2 -0.4 -0.4
v -1.2 -0.2 0.2
v -1.2 -0.2 -0.2
v -1 -1 0.4
v -1 -1 -0.4
v -1 -0.8 0.6
v -1 -0.8 0.4
v -1 -0.8 -0.4
v -1 -0.8 -0.6
v -1 -0.4 0.4
v -1 -0.4 0.2
v -1 -0.4 -0.2
v -1 -0.4 -0.4
v -1 -0.2 0.6
v -1 -0.2 0.4
v -1 -0.2 0.2
v -1 -0.2 -0.2
v -1 -0.2 -0.4
v -1 -0.2 -0.6
v -1 0 0.4
v -1 0 0.2
v -1 0 -0.2
v -1 0 -0.4
v -1 0.2 0.2
v -1 0.2 -0.2
v -0.8 -1 0.8
v -0.8 -1 0.6
v -0.8 -1 0.4
v -0.8 -1 -0.4
v -0.8 -1 -0.6
v -0.8 -1 -0.8
v -0.8 -0.8 0.6
v -0.8 -0.8 0.4
v -0.8 -0.8 -0.4
v -0.8 -0.8 -0.6
v -0.8 -0.5 0.8
v -0.8 -0.5 0.7
v -0.8 -0.4 0.7
v -0.8 -0.4 0.6
v -0.8 -0.4 -0.6
v -0.8 -0.4 -0.8
v -0.6 0.2 0.2
v -0.6 0.2 -0.2
v -0.6 0.4 0.2
v -0.6 0.4 -0.2
v 0.2 0 0.2
v 0.2 0 -0.2
v 0.2 0.4 0.2
v 0.2 0.4 -0.2
v 0.6 -0.8 0.8
v 0.6 -0.8 0.6
v 0.6 -0.8 -0.6
v 0.6 -0.8 -0.8
v 0.6 -0.6 0.8
v 0.6 -0.6 0.6
v 0.6 -0.6 -0.6
v 0.6 -0.6 -0.8
v -0.6 -0.8 0.8
v -0.6 -0.8 0.6
v -0.6 -0.8 -0.6
v -0.6 -0.8 -0.8
v -0.6 -0.6 0.8
v -0.6 -0.6 0.6
v -0.6 -0.6 -0.6
v -0.6 -0.6 -0.8
v -0.2 -0.4 0.6
v -0.2 -0.4 0.4
v -0.2 -0.4 -0.4
v -0.2 -0.4 -0.6
v -0.2 -0.2 0.6
v -0.2 -0.2 0.4
v -0.2 -0.2 -0.4
v -0.2 -0.2 -0.6
v 0 0 0.2
v 0 0 -0.2
v 0 0.4 0.2
v 0 0.4 -0.2
v 0.6 -1 0.4
v 0.6 -1 -0.4
v 0.6 -0.4 0.4
v 0.6 -0.4 0.2
v 0.6 -0.4 -0.2
v 0.6 -0.4 -0.4
v 0.6 0 0.2
v 0.6 0 -0.2
v 0.8 -1 0.8
v 0.8 -1 0.6
v 0.8 -1 0.4
v 0.8 -1 -0.4
v 0.8 -1 -0.6
v 0.8 -1 -0.8
v 0.8 -0.5 0.8
v 0.8 -0.5 0.7
v 0.8 -0.4 0.7
v 0.8 -0.4 0.6
v 0.8 -0.4 0.4
v 0.8 -0.4 0.2
v 0.8 -0.4 -0.2
v 0.8 -0.4 -0.4
v 0.8 -0.4 -0.6
v 0.8 -0.4 -0.8
v 0.8 0 0.4
v 0.8 0 0.2
v 0.8 0 -0.2
v 0.8 0 -0.4
v 0.8 0.4 0.2
v 0.8 0.4 -0.2
v -0.8 -1 0.8
v -0.8 -0.5 0.8
v -0.6 -0.8 0.8
v -0.6 -0.6 0.8
v 0.6 -0.8 0.8
v 0.6 -0.6 0.8
v 0.8 -1 0.8
v 0.8 -0.5 0.8
v -0.8 -0.5 0.7
v -0.8 -0.4 0.7
v 0.8 -0.5 0.7
v 0.8 -0.4 0.7
v -1 -0.8 0.6
v -1 -0.2 0.6
v -0.8 -0.8 0.6
v -0.8 -0.4 0.6
v -0.6 -0.8 0.6
v -0.6 -0.6 0.6
v -0.2 -0.4 0.6
v -0.2 -0.2 0.6
v 0.6 -0.8 0.6
v 0.6 -0.6 0.6
v -1.2 -0.8 0.4
v -1.2 -0.4 0.4
v -1 -1 0.4
v -1 -0.8 0.4
v -1 -0.4 0.4
v -1 -0.2 0.4
v -1 0 0.4
v -0.8 -1 0.4
v -0.8 -0.8 0.4
v -0.2 -0.4 0.4
v -0.2 -0.2 0.4
v 0.8 -0.4 0.4
v 0.8 0 0.4
v -1.4 -0.8 0.2
v -1.4 -0.4 0.2
v -1.2 -0.8 0.2
v -1.2 -0.4 0.2
v -1.2 -0.2 0.2
v -1 -0.4 0.2
v -1 -0.2 0.2
v -1 0 0.2
v -1 0.2 0.2
v -0.6 0.2 0.2
v -0.6 0.4 0.2
v 0 0 0.2
v 0 0.4 0.2
v 0.2 0 0.2
v 0.2 0.4 0.2
v 0.8 0 0.2
v 0.8 0.4 0.2
v 0.6 -0.4 -0.2
v 0.6 0 -0.2
v 0.8 -0.4 -0.2
v 0.8 0 -0.2
v 0.6 -1 -0.4
v 0.6 -0.4 -0.4
v 0.8 -1 -0.4
v 0.8 -0.4 -0.4
v 0.6 -1 0.4
v 0.6 -0.4 0.4
v 0.8 -1 0.4
v 0.8 -0.4 0.4
v 0.6 -0.4 0.2
v 0.6 0 0.2
v 0.8 -0.4 0.2
v 0.8 0 0.2
v -1.4 -0.8 -0.2
v -1.4 -0.4 -0.2
v -1.2 -0.8 -0.2
v -1.2 -0.4 -0.2
v -1.2 -0.2 -0.2
v -1 -0.4 -0.2
v -1 -0.2 -0.2
v -1 0 -0.2
v -1 0.2 -0.2
v -0.6 0.2 -0.2
v -0.6 0.4 -0.2
v 0 0 -0.2
v 0 0.4 -0.2
v 0.2 0 -0.2
v 0.2 0.4 -0.2
v 0.8 0 -0.2
v 0.8 0.4 -0.2
v -1.2 -0.8 -0.4
v -1.2 -0.4 -0.4
v -1 -1 -0.4
v -1 -0.8 -0.4
v -1 -0.4 -0.4
v -1 -0.2 -0.4
v -1 0 -0.4
v -0.8 -1 -0.4
v -0.8 -0.8 -0.4
v -0.2 -0.4 -0.4
v -0.2 -0.2 -0.4
v 0.8 -0.4 -0.4
v 0.8 0 -0.4
v -1 -0.8 -0.6
v -1 -0.2 -0.6
v -0.8 -0.8 -0.6
v -0.8 -0.4 -0.6
v -0.6 -0.8 -0.6
v -0.6 -0.6 -0.6
v -0.2 -0.4 -0.6
v -0.2 -0.2 -0.6
v 0.6 -0.8 -0.6
v 0.6 -0.6 -0.6
v -0.8 -1 -0.8
v -0.8 -0.4 -0.8
v -0.6 -0.8 -0.8
v -0.6 -0.6 -0.8
v 0.6 -0.8 -0.8
v 0.6 -0.6 -0.8
v 0.8 -1 -0.8
v 0.8 -0.4 -0.8
v -0.8 -1 0.8
v 0.8 -1 0.8
v -0.8 -1 0.6
v 0.8 -1 0.6
v -1 -1 0.4
v -0.8 -1 0.4
v 0.6 -1 0.4
v 0.8 -1 0.4
v -1 -1 -0.4
v -0.8 -1 -0.4
v 0.6 -1 -0.4
v 0.8 -1 -0.4
v -0.8 -1 -0.6
v 0.8 -1 -0.6
v -0.8 -1 -0.8
v 0.8 -1 -0.8
v -1 -0.8 0.6
v -0.8 -0.8 0.6
v -1.2 -0.8 0.4
v -1 -0.8 0.4
v -0.8 -0.8 0.4
v -1.4 -0.8 0.2
v -1.2 -0.8 0.2
v -1.4 -0.8 -0.2
v -1.2 -0.8 -0.2
v -1.2 -0.8 -0.4
v -1 -0.8 -0.4
v -0.8 -0.8 -0.4
v -1 -0.8 -0.6
v -0.8 -0.8 -0.6
v -0.6 -0.6 0.8
v 0.6 -0.6 0.8
v -0.6 -0.6 0.6
v 0.6 -0.6 0.6
v -0.6 -0.6 -0.6
v 0.6 -0.6 -0.6
v -0.6 -0.6 -0.8
v 0.6 -0.6 -0.8
v 0.6 -0.4 0.4
v 0.8 -0.4 0.4
v 0.6 -0.4 0.2
v 0.8 -0.4 0.2
v 0.6 -0.4 -0.2
v 0.8 -0.4 -0.2
v 0.6 -0.4 -0.4
v 0.8 -0.4 -0.4
v 0.6 0 0.2
v 0.8 0 0.2
v 0.6 0 -0.2
v 0.8 0 -0.2
v -0.6 -0.8 0.8
v 0.6 -0.8 0.8
v -0.6 -0.8 0.6
v 0.6 -0.8 0.6
v -0.6 -0.8 -0.6
v 0.6 -0.8 -0.6
v -0.6 -0.8 -0.8
v 0.6 -0.8 -0.8
v -0.8 -0.5 0.8
v 0.8 -0.5 0.8
v -0.8 -0.5 0.7
v 0.8 -0.5 0.7
v -0.8 -0.4 0.7
v 0.8 -0.4 0.7
v -0.8 -0.4 0.6
v -0.2 -0.4 0.6
v 0.8 -0.4 0.6
v -1.2 -0.4 0.4
v -1 -0.4 0.4
v -0.2 -0.4 0.4
v 0.8 -0.4 0.4
v -1.4 -0.4 0.2
v -1.2 -0.4 0.2
v -1 -0.4 0.2
v -1.4 -0.4 -0.2
v -1.2 -0.4 -0.2
v -1 -0.4 -0.2
v -1.2 -0.4 -0.4
v -1 -0.4 -0.4
v -0.2 -0.4 -0.4
v 0.8 -0.4 -0.4
v -0.8 -0.4 -0.6
v -0.2 -0.4 -0.6
v 0.8 -0.4 -0.6
v -0.8 -0.4 -0.8
v 0.8 -0.4 -0.8
v -1 -0.2 0.6
v -0.2 -0.2 0.6
v -1 -0.2 0.4
v -0.2 -0.2 0.4
v -1.2 -0.2 0.2
v -1 -0.2 0.2
v -1.2 -0.2 -0.2
v -1 -0.2 -0.2
v -1 -0.2 -0.4
v -0.2 -0.2 -0.4
v -1 -0.2 -0.6
v -0.2 -0.2 -0.6
v -1 0 0.4
v 0.8 0 0.4
v -1 0 0.2
v 0 0 0.2
v 0.2 0 0.2
v 0.8 0 0.2
v -1 0 -0.2
v 0 0 -0.2
v 0.2 0 -0.2
v 0.8 0 -0.2
v -1 0 -0.4
v 0.8 0 -0.4
v -1 0.2 0.2
v -0.6 0.2 0.2
v -1 0.2 -0.2
v -0.6 0.2 -0.2
v -0.6 0.4 0.2
v 0 0.4 0.2
v 0.2 0.4 0.2
v 0.8 0.4 0.2
v -0.6 0.4 -0.2
v 0 0.4 -0.2
v 0.2 0.4 -0.2
v 0.8 0.4 -0.2

# faces
f 3/2/1 2/2/1 1/2/1
f 4/2/1 2/2/1 3/2/1
f 9/2/1 6/2/1 5/2/1
f 10/2/1 6/2/1 9/2/1
f 11/2/1 8/2/1 7/2/1
f 12/2/1 8/2/1 11/2/1
f 13/2/1 11/2/1 10/2/1
f 14/2/1 11/2/1 13/2/1
f 18/2/1 16/2/1 15/2/1
f 19/2/1 16/2/1 18/2/1
f 21/2/1 18/2/1 17/2/1
f 24/2/1 20/2/1 19/2/1
f 25/2/1 22/2/1 21/2/1
f 25/2/1 21/2/1 17/2/1
f 26/2/1 22/2/1 25/2/1
f 27/2/1 22/2/1 26/2/1
f 28/2/1 24/2/1 23/2/1
f 29/2/1 20/2/1 24/2/1
f 29/2/1 24/2/1 28/2/1
f 30/2/1 20/2/1 29/2/1
f 31/2/1 27/2/1 26/2/1
f 31/2/1 28/2/1 27/2/1
f 31/2/1 29/2/1 28/2/1
f 32/2/1 29/2/1 31/2/1
f 33/2/1 29/2/1 32/2/1
f 34/2/1 29/2/1 33/2/1
f 35/2/1 33/2/1 32/2/1
f 36/2/1 33/2/1 35/2/1
f 43/3/1 38/3/1 37/3/1
f 43/2/1 39/2/1 38/2/1
f 44/2/1 39/2/1 43/2/1
f 45/2/1 41/2/1 40/2/1
f 46/3/1 42/3/1 41/3/1
f 46/2/1 41/2/1 45/2/1
f 47/3/1 43/3/1 37/3/1
f 48/3/1 43/3/1 47/3/1
f 49/3/1 43/3/1 48/3/1
f 50/3/1 43/3/1 49/3/1
f 51/3/1 42/3/1 46/3/1
f 52/3/1 42/3/1 51/3/1
f 55/2/1 54/2/1 53/2/1
f 56/2/1 54/2/1 55/2/1
f 59/2/1 58/2/1 57/2/1
f 60/2/1 58/2/1 59/2/1
f 65/3/1 62/3/1 61/3/1
f 66/3/1 62/3/1 65/3/1
f 67/3/1 64/3/1 63/3/1
f 68/3/1 64/3/1 67/3/1
f 69/3/2 70/3/2 73/3/2
f 73/3/2 70/3/2 74/3/2
f 71/3/2 72/3/2 75/3/2
f 75/3/2 72/3/2 76/3/2
f 77/2/2 78/2/2 81/2/2
f 81/2/2 78/2/2 82/2/2
f 79/2/2 80/2/2 83/2/2
f 83/2/2 80/2/2 84/2/2
f 85/2/2 86/2/2 87/2/2
f 87/2/2 86/2/2 88/2/2
f 89/2/2 90/2/2 91/2/2
f 91/2/2 90/2/2 92/2/2
f 92/2/2 90/2/2 93/2/2
f 93/2/2 90/2/2 94/2/2
f 92/2/2 93/2/2 95/2/2
f 95/2/2 93/2/2 96/2/2
f 97/3/2 98/3/2 103/3/2
f 103/3/2 98/3/2 104/3/2
f 104/3/2 98/3/2 105/3/2
f 98/2/2 99/2/2 106/2/2
f 105/3/2 98/3/2 106/3/2
f 106/2/2 99/2/2 107/2/2
f 100/2/2 101/2/2 110/2/2
f 101/3/2 102/3/2 111/3/2
f 110/2/2 101/2/2 111/2/2
f 111/3/2 102/3/2 112/3/2
f 107/2/2 108/2/2 113/2/2
f 113/2/2 108/2/2 114/2/2
f 109/2/2 110/2/2 115/2/2
f 115/2/2 110/2/2 116/2/2
f 114/2/2 115/2/2 117/2/2
f 117/2/2 115/2/2 118/2/2
f 121/3/3 120/3/3 119/3/3
f 122/3/3 120/3/3 121/3/3
f 123/3/3 121/3/3 119/3/3
f 124/3/3 120/3/3 122/3/3
f 125/3/3 123/3/3 119/3/3
f 125/3/3 124/3/3 123/3/3
f 126/3/3 120/3/3 124/3/3
f 126/3/3 124/3/3 125/3/3
f 129/3/3 128/3/3 127/3/3
f 130/3/3 128/3/3 129/3/3
f 133/2/3 132/2/3 131/2/3
f 134/2/3 132/2/3 133/2/3
f 137/2/3 132/2/3 134/2/3
f 138/2/3 132/2/3 137/2/3
f 139/2/3 136/2/3 135/2/3
f 140/2/3 136/2/3 139/2/3
f 144/2/3 142/2/3 141/2/3
f 145/2/3 142/2/3 144/2/3
f 148/2/3 144/2/3 143/2/3
f 149/2/3 144/2/3 148/2/3
f 151/2/3 147/2/3 146/2/3
f 152/2/3 151/2/3 150/2/3
f 153/2/3 147/2/3 151/2/3
f 153/2/3 151/2/3 152/2/3
f 156/2/3 155/2/3 154/2/3
f 157/2/3 155/2/3 156/2/3
f 159/2/3 158/2/3 157/2/3
f 160/2/3 158/2/3 159/2/3
f 163/2/3 162/2/3 161/2/3
f 165/2/3 163/2/3 161/2/3
f 165/2/3 164/2/3 163/2/3
f 166/2/3 164/2/3 165/2/3
f 169/2/3 168/2/3 167/2/3
f 170/2/3 168/2/3 169/2/3
f 173/2/3 172/2/3 171/2/3
f 174/2/3 172/2/3 173/2/3
f 177/2/3 176/2/3 175/2/3
f 178/2/3 176/2/3 177/2/3
f 179/2/4 180/2/4 181/2/4
f 181/2/4 180/2/4 182/2/4
f 183/2/4 184/2/4 185/2/4
f 185/2/4 184/2/4 186/2/4
f 187/2/4 188/2/4 189/2/4
f 189/2/4 188/2/4 190/2/4
f 190/2/4 191/2/4 192/2/4
f 192/2/4 191/2/4 193/2/4
f 194/2/4 195/2/4 196/2/4
f 194/2/4 196/2/4 198/2/4
f 196/2/4 197/2/4 198/2/4
f 198/2/4 197/2/4 199/2/4
f 200/2/4 201/2/4 202/2/4
f 202/2/4 201/2/4 203/2/4
f 204/2/4 205/2/4 207/2/4
f 207/2/4 205/2/4 208/2/4
f 206/2/4 207/2/4 211/2/4
f 211/2/4 207/2/4 212/2/4
f 209/2/4 210/2/4 214/2/4
f 213/2/4 214/2/4 215/2/4
f 214/2/4 210/2/4 216/2/4
f 215/2/4 214/2/4 216/2/4
f 217/2/4 218/2/4 219/2/4
f 219/2/4 218/2/4 220/2/4
f 220/2/4 218/2/4 223/2/4
f 223/2/4 218/2/4 224/2/4
f 221/2/4 222/2/4 225/2/4
f 225/2/4 222/2/4 226/2/4
f 227/3/4 228/3/4 229/3/4
f 229/3/4 228/3/4 230/3/4
f 227/3/4 229/3/4 231/3/4
f 230/3/4 228/3/4 232/3/4
f 227/3/4 231/3/4 233/3/4
f 231/3/4 232/3/4 233/3/4
f 232/3/4 228/3/4 234/3/4
f 233/3/4 232/3/4 234/3/4
f 237/3/5 236/3/5 235/3/5
f 238/3/5 236/3/5 237/3/5
f 240/2/5 238/2/5 237/2/5
f 241/2/5 238/2/5 240/2/5
f 242/2/5 238/2/5 241/2/5
f 243/2/5 240/2/5 239/2/5
f 243/2/5 241/2/5 240/2/5
f 244/2/5 241/2/5 243/2/5
f 245/2/5 241/2/5 244/2/5
f 247/2/5 246/2/5 245/2/5
f 247/2/5 245/2/5 244/2/5
f 248/2/5 246/2/5 247/2/5
f 249/3/5 248/3/5 247/3/5
f 250/3/5 248/3/5 249/3/5
f 254/2/5 252/2/5 251/2/5
f 255/2/5 252/2/5 254/2/5
f 257/2/5 254/2/5 253/2/5
f 258/2/5 257/2/5 256/2/5
f 259/2/5 254/2/5 257/2/5
f 259/2/5 257/2/5 258/2/5
f 260/2/5 254/2/5 259/2/5
f 261/2/5 254/2/5 260/2/5
f 263/2/5 262/2/5 261/2/5
f 264/2/5 262/2/5 263/2/5
f 267/3/5 266/3/5 265/3/5
f 268/3/5 266/3/5 267/3/5
f 271/3/5 270/3/5 269/3/5
f 272/3/5 270/3/5 271/3/5
f 275/2/5 274/2/5 273/2/5
f 276/2/5 274/2/5 275/2/5
f 279/2/5 278/2/5 277/2/5
f 280/2/5 278/2/5 279/2/5
f 283/2/5 282/2/5 281/2/5
f 284/2/5 282/2/5 283/2/5
f 285/3/6 286/3/6 287/3/6
f 287/3/6 286/3/6 288/3/6
f 289/3/6 290/3/6 291/3/6
f 291/3/6 290/3/6 292/3/6
f 293/3/6 294/3/6 295/3/6
f 295/3/6 294/3/6 296/3/6
f 297/3/6 298/3/6 299/3/6
f 299/3/6 298/3/6 300/3/6
f 300/3/6 298/3/6 301/3/6
f 300/2/6 301/2/6 304/2/6
f 304/2/6 301/2/6 305/2/6
f 302/2/6 303/2/6 307/2/6
f 307/2/6 303/2/6 308/2/6
f 306/2/6 307/2/6 309/2/6
f 309/2/6 307/2/6 310/2/6
f 310/2/6 311/2/6 312/2/6
f 312/2/6 311/2/6 313/2/6
f 314/2/6 315/2/6 317/2/6
f 317/2/6 315/2/6 318/2/6
f 316/3/6 317/3/6 319/3/6
f 317/3/6 318/3/6 319/3/6
f 319/3/6 318/3/6 320/3/6
f 321/2/6 322/2/6 323/2/6
f 323/2/6 322/2/6 324/2/6
f 325/2/6 326/2/6 327/2/6
f 327/2/6 326/2/6 328/2/6
f 329/2/6 330/2/6 331/2/6
f 331/2/6 330/2/6 332/2/6
f 333/2/6 334/2/6 335/2/6
f 335/2/6 334/2/6 336/2/6
f 336/2/6 334/2/6 337/2/6
f 337/2/6 334/2/6 338/2/6
f 336/2/6 337/2/6 340/2/6
f 340/2/6 337/2/6 341/2/6
f 339/2/6 340/2/6 343/2/6
f 341/2/6 342/2/6 343/2/6
f 340/2/6 341/2/6 343/2/6
f 343/2/6 342/2/6 344/2/6
f 345/2/6 346/2/6 347/2/6
f 347/2/6 346/2/6 348/2/6
f 349/2/6 350/2/6 353/2/6
f 353/2/6 350/2/6 354/2/6
f 351/2/6 352/2/6 355/2/6
f 355/2/6 352/2/6 356/2/6
