# MagicaVoxel @ Ephtracy

# group
o 

# material
mtllib tank.sample.mtl
usemtl palette

# normals
vn -1 0 0
vn 1 0 0
vn 0 0 1
vn 0 0 -1
vn 0 -1 0
vn 0 1 0

# texcoords
vt 0.00585938 0.5
vt 0.978516 0.5
vt 0.990234 0.5

# verts
v -5 0 5
v -5 0 -5
v -5 0.9 5
v -5 0.9 -5
v -5 1 5
v -5 1 -5
v 5 0 5
v 5 0 -5
v 5 0.9 5
v 5 0.9 -5
v 5 1 5
v 5 1 -5
v -5 0 5
v -5 0.9 5
v -5 1 5
v 5 0 5
v 5 0.9 5
v 5 1 5
v -5 0 -5
v -5 0.9 -5
v -5 1 -5
v 5 0 -5
v 5 0.9 -5
v 5 1 -5
v -5 0 5
v 5 0 5
v -5 0 -5
v 5 0 -5
v -5 1 5
v 5 1 5
v -4.5 1 4.5
v 4.5 1 4.5
v -4.2 1 4.2
v 4.2 1 4.2
v -3.8 1 3.8
v 3.8 1 3.8
v -3.5 1 3.5
v 3.5 1 3.5
v -3.5 1 -3.4
v 3.5 1 -3.4
v -3.8 1 -3.8
v 3.8 1 -3.8
v -4.2 1 -4.2
v 4.2 1 -4.2
v -4.5 1 -4.5
v 4.5 1 -4.5
v -5 1 -5
v 5 1 -5

# faces
f 3/2/1 2/2/1 1/2/1
f 4/2/1 2/2/1 3/2/1
f 5/1/1 4/1/1 3/1/1
f 6/1/1 4/1/1 5/1/1
f 7/2/2 8/2/2 9/2/2
f 9/2/2 8/2/2 10/2/2
f 9/1/2 10/1/2 11/1/2
f 11/1/2 10/1/2 12/1/2
f 16/2/3 14/2/3 13/2/3
f 17/1/3 15/1/3 14/1/3
f 17/2/3 14/2/3 16/2/3
f 18/1/3 15/1/3 17/1/3
f 19/2/4 20/2/4 22/2/4
f 20/1/4 21/1/4 23/1/4
f 22/2/4 20/2/4 23/2/4
f 23/1/4 21/1/4 24/1/4
f 27/2/5 26/2/5 25/2/5
f 28/2/5 26/2/5 27/2/5
f 29/1/6 30/1/6 31/1/6
f 31/1/6 30/1/6 32/1/6
f 31/3/6 32/3/6 33/3/6
f 33/3/6 32/3/6 34/3/6
f 33/1/6 34/1/6 35/1/6
f 35/1/6 34/1/6 36/1/6
f 35/3/6 36/3/6 37/3/6
f 37/3/6 36/3/6 38/3/6
f 35/3/6 37/3/6 39/3/6
f 37/1/6 38/1/6 39/1/6
f 38/3/6 36/3/6 40/3/6
f 39/1/6 38/1/6 40/1/6
f 33/1/6 35/1/6 41/1/6
f 35/3/6 39/3/6 41/3/6
f 39/3/6 40/3/6 41/3/6
f 40/3/6 36/3/6 42/3/6
f 41/3/6 40/3/6 42/3/6
f 36/1/6 34/1/6 42/1/6
f 31/3/6 33/3/6 43/3/6
f 33/1/6 41/1/6 43/1/6
f 41/1/6 42/1/6 43/1/6
f 42/1/6 34/1/6 44/1/6
f 43/1/6 42/1/6 44/1/6
f 34/3/6 32/3/6 44/3/6
f 29/1/6 31/1/6 45/1/6
f 31/3/6 43/3/6 45/3/6
f 43/3/6 44/3/6 45/3/6
f 44/3/6 32/3/6 46/3/6
f 45/3/6 44/3/6 46/3/6
f 32/1/6 30/1/6 46/1/6
f 29/1/6 45/1/6 47/1/6
f 45/1/6 46/1/6 47/1/6
f 46/1/6 30/1/6 48/1/6
f 47/1/6 46/1/6 48/1/6
